<svg width="200" height="60" viewBox="0 0 200 60" fill="none" xmlns="http://www.w3.org/2000/svg">
<rect width="200" height="60" rx="20" fill="url(#paint0_linear_7_10768)"/>
<g clip-path="url(#clip0_7_10768)">
<path d="M143 57V3M163 3V57M183 56.1497V3.95245" stroke="#534437"/>
<path d="M121.768 23H197M196.249 43H121.768" stroke="url(#paint1_linear_7_10768)"/>
</g>
<rect x="3.5" y="3.5" width="193" height="53" rx="16.5" stroke="#534437"/>
<path d="M17.0568 25V16.2727H18.1136V24.0625H22.1705V25H17.0568ZM26.4148 25.1364C25.7841 25.1364 25.2401 24.9972 24.7827 24.7188C24.3281 24.4375 23.9773 24.0455 23.7301 23.5426C23.4858 23.0369 23.3636 22.4489 23.3636 21.7784C23.3636 21.108 23.4858 20.517 23.7301 20.0057C23.9773 19.4915 24.321 19.0909 24.7614 18.804C25.2045 18.5142 25.7216 18.3693 26.3125 18.3693C26.6534 18.3693 26.9901 18.4261 27.3224 18.5398C27.6548 18.6534 27.9574 18.8381 28.2301 19.0938C28.5028 19.3466 28.7202 19.6818 28.8821 20.0994C29.044 20.517 29.125 21.0312 29.125 21.642V22.0682H24.0795V21.1989H28.1023C28.1023 20.8295 28.0284 20.5 27.8807 20.2102C27.7358 19.9205 27.5284 19.6918 27.2585 19.5241C26.9915 19.3565 26.6761 19.2727 26.3125 19.2727C25.9119 19.2727 25.5653 19.3722 25.2727 19.571C24.983 19.767 24.7599 20.0227 24.6037 20.3381C24.4474 20.6534 24.3693 20.9915 24.3693 21.3523V21.9318C24.3693 22.4261 24.4545 22.8452 24.625 23.1889C24.7983 23.5298 25.0384 23.7898 25.3452 23.9688C25.652 24.1449 26.0085 24.233 26.4148 24.233C26.679 24.233 26.9176 24.196 27.1307 24.1222C27.3466 24.0455 27.5327 23.9318 27.6889 23.7812C27.8452 23.6278 27.9659 23.4375 28.0511 23.2102L29.0227 23.483C28.9205 23.8125 28.7486 24.1023 28.5071 24.3523C28.2656 24.5994 27.9673 24.7926 27.6122 24.9318C27.2571 25.0682 26.858 25.1364 26.4148 25.1364ZM32.581 25.1534C32.1662 25.1534 31.7898 25.0753 31.4517 24.919C31.1136 24.7599 30.8452 24.5312 30.6463 24.233C30.4474 23.9318 30.348 23.5682 30.348 23.142C30.348 22.767 30.4219 22.4631 30.5696 22.2301C30.7173 21.9943 30.9148 21.8097 31.1619 21.6761C31.4091 21.5426 31.6818 21.4432 31.9801 21.3778C32.2813 21.3097 32.5838 21.2557 32.8878 21.2159C33.2855 21.1648 33.608 21.1264 33.8551 21.1009C34.1051 21.0724 34.2869 21.0256 34.4006 20.9602C34.517 20.8949 34.5753 20.7812 34.5753 20.6193V20.5852C34.5753 20.1648 34.4602 19.8381 34.2301 19.6051C34.0028 19.3722 33.6577 19.2557 33.1946 19.2557C32.7145 19.2557 32.3381 19.3608 32.0653 19.571C31.7926 19.7812 31.6009 20.0057 31.4901 20.2443L30.5355 19.9034C30.706 19.5057 30.9332 19.196 31.2173 18.9744C31.5043 18.75 31.8168 18.5937 32.1548 18.5057C32.4957 18.4148 32.831 18.3693 33.1605 18.3693C33.3707 18.3693 33.6122 18.3949 33.8849 18.446C34.1605 18.4943 34.4261 18.5952 34.6818 18.7486C34.9403 18.902 35.1548 19.1335 35.3253 19.4432C35.4957 19.7528 35.581 20.1676 35.581 20.6875V25H34.5753V24.1136H34.5241C34.456 24.2557 34.3423 24.4077 34.1832 24.5696C34.0241 24.7315 33.8125 24.8693 33.5483 24.983C33.2841 25.0966 32.9616 25.1534 32.581 25.1534ZM32.7344 24.25C33.1321 24.25 33.4673 24.1719 33.7401 24.0156C34.0156 23.8594 34.223 23.6577 34.3622 23.4105C34.5043 23.1634 34.5753 22.9034 34.5753 22.6307V21.7102C34.5327 21.7614 34.4389 21.8082 34.294 21.8509C34.152 21.8906 33.9872 21.9261 33.7997 21.9574C33.6151 21.9858 33.4347 22.0114 33.2585 22.0341C33.0852 22.054 32.9446 22.071 32.8366 22.0852C32.5753 22.1193 32.331 22.1747 32.1037 22.2514C31.8793 22.3253 31.6974 22.4375 31.5582 22.5881C31.4219 22.7358 31.3537 22.9375 31.3537 23.1932C31.3537 23.5426 31.483 23.8068 31.7415 23.9858C32.0028 24.1619 32.3338 24.25 32.7344 24.25ZM37.4165 25V18.4545H38.3881V19.4432H38.4563C38.5756 19.1193 38.7915 18.8565 39.104 18.6548C39.4165 18.4531 39.7688 18.3523 40.1609 18.3523C40.2347 18.3523 40.3271 18.3537 40.4379 18.3565C40.5487 18.3594 40.6325 18.3636 40.6893 18.3693V19.392C40.6552 19.3835 40.5771 19.3707 40.4549 19.3537C40.3356 19.3338 40.2092 19.3239 40.0756 19.3239C39.7575 19.3239 39.4734 19.3906 39.2234 19.5241C38.9762 19.6548 38.7802 19.8366 38.6353 20.0696C38.4933 20.2997 38.4222 20.5625 38.4222 20.858V25H37.4165ZM42.8871 21.0625V25H41.8814V18.4545H42.853V19.4773H42.9382C43.0916 19.1449 43.3246 18.8778 43.6371 18.6761C43.9496 18.4716 44.353 18.3693 44.8473 18.3693C45.2905 18.3693 45.6783 18.4602 46.0107 18.642C46.343 18.821 46.6016 19.0938 46.7862 19.4602C46.9709 19.8239 47.0632 20.2841 47.0632 20.8409V25H46.0575V20.9091C46.0575 20.3949 45.924 19.9943 45.657 19.7074C45.3899 19.4176 45.0234 19.2727 44.5575 19.2727C44.2365 19.2727 43.9496 19.3423 43.6967 19.4815C43.4467 19.6207 43.2493 19.8239 43.1044 20.0909C42.9595 20.358 42.8871 20.6818 42.8871 21.0625ZM52.2759 25V18.4545H53.2475V19.4773H53.3327C53.4691 19.1278 53.6893 18.8565 53.9933 18.6634C54.2972 18.4673 54.6623 18.3693 55.0884 18.3693C55.5202 18.3693 55.8796 18.4673 56.1665 18.6634C56.4563 18.8565 56.6822 19.1278 56.8441 19.4773H56.9123C57.0799 19.1392 57.3313 18.8707 57.6665 18.6719C58.0018 18.4702 58.4038 18.3693 58.8725 18.3693C59.4577 18.3693 59.9364 18.5526 60.3086 18.919C60.6808 19.2827 60.8668 19.8494 60.8668 20.6193V25H59.8612V20.6193C59.8612 20.1364 59.729 19.7912 59.4648 19.5838C59.2006 19.3764 58.8896 19.2727 58.5316 19.2727C58.0714 19.2727 57.7148 19.4119 57.462 19.6903C57.2092 19.9659 57.0827 20.3153 57.0827 20.7386V25H56.06V20.517C56.06 20.1449 55.9393 19.8452 55.6978 19.6179C55.4563 19.3878 55.1452 19.2727 54.7646 19.2727C54.5032 19.2727 54.2589 19.3423 54.0316 19.4815C53.8072 19.6207 53.6254 19.8139 53.4862 20.0611C53.3498 20.3054 53.2816 20.5881 53.2816 20.9091V25H52.2759ZM65.3647 25.1364C64.7738 25.1364 64.2553 24.9957 63.8093 24.7145C63.3661 24.4332 63.0195 24.0398 62.7695 23.5341C62.5224 23.0284 62.3988 22.4375 62.3988 21.7614C62.3988 21.0795 62.5224 20.4844 62.7695 19.9759C63.0195 19.4673 63.3661 19.0724 63.8093 18.7912C64.2553 18.5099 64.7738 18.3693 65.3647 18.3693C65.9556 18.3693 66.4727 18.5099 66.9158 18.7912C67.3619 19.0724 67.7085 19.4673 67.9556 19.9759C68.2056 20.4844 68.3306 21.0795 68.3306 21.7614C68.3306 22.4375 68.2056 23.0284 67.9556 23.5341C67.7085 24.0398 67.3619 24.4332 66.9158 24.7145C66.4727 24.9957 65.9556 25.1364 65.3647 25.1364ZM65.3647 24.233C65.8136 24.233 66.1829 24.1179 66.4727 23.8878C66.7624 23.6577 66.9769 23.3551 67.1161 22.9801C67.2553 22.6051 67.3249 22.1989 67.3249 21.7614C67.3249 21.3239 67.2553 20.9162 67.1161 20.5384C66.9769 20.1605 66.7624 19.8551 66.4727 19.6222C66.1829 19.3892 65.8136 19.2727 65.3647 19.2727C64.9158 19.2727 64.5465 19.3892 64.2567 19.6222C63.967 19.8551 63.7525 20.1605 63.6133 20.5384C63.4741 20.9162 63.4045 21.3239 63.4045 21.7614C63.4045 22.1989 63.4741 22.6051 63.6133 22.9801C63.7525 23.3551 63.967 23.6577 64.2567 23.8878C64.5465 24.1179 64.9158 24.233 65.3647 24.233ZM69.8658 25V18.4545H70.8374V19.4432H70.9055C71.0249 19.1193 71.2408 18.8565 71.5533 18.6548C71.8658 18.4531 72.218 18.3523 72.6101 18.3523C72.6839 18.3523 72.7763 18.3537 72.8871 18.3565C72.9979 18.3594 73.0817 18.3636 73.1385 18.3693V19.392C73.1044 19.3835 73.0263 19.3707 72.9041 19.3537C72.7848 19.3338 72.6584 19.3239 72.5249 19.3239C72.2067 19.3239 71.9226 19.3906 71.6726 19.5241C71.4254 19.6548 71.2294 19.8366 71.0845 20.0696C70.9425 20.2997 70.8714 20.5625 70.8714 20.858V25H69.8658ZM76.8757 25.1364C76.245 25.1364 75.701 24.9972 75.2436 24.7188C74.7891 24.4375 74.4382 24.0455 74.1911 23.5426C73.9467 23.0369 73.8246 22.4489 73.8246 21.7784C73.8246 21.108 73.9467 20.517 74.1911 20.0057C74.4382 19.4915 74.782 19.0909 75.2223 18.804C75.6655 18.5142 76.1825 18.3693 76.7734 18.3693C77.1143 18.3693 77.451 18.4261 77.7834 18.5398C78.1158 18.6534 78.4183 18.8381 78.6911 19.0938C78.9638 19.3466 79.1811 19.6818 79.343 20.0994C79.505 20.517 79.5859 21.0312 79.5859 21.642V22.0682H74.5405V21.1989H78.5632C78.5632 20.8295 78.4893 20.5 78.3416 20.2102C78.1967 19.9205 77.9893 19.6918 77.7195 19.5241C77.4524 19.3565 77.1371 19.2727 76.7734 19.2727C76.3729 19.2727 76.0263 19.3722 75.7337 19.571C75.4439 19.767 75.2209 20.0227 75.0646 20.3381C74.9084 20.6534 74.8303 20.9915 74.8303 21.3523V21.9318C74.8303 22.4261 74.9155 22.8452 75.0859 23.1889C75.2592 23.5298 75.4993 23.7898 75.8061 23.9688C76.1129 24.1449 76.4695 24.233 76.8757 24.233C77.1399 24.233 77.3786 24.196 77.5916 24.1222C77.8075 24.0455 77.9936 23.9318 78.1499 23.7812C78.3061 23.6278 78.4268 23.4375 78.5121 23.2102L79.4837 23.483C79.3814 23.8125 79.2095 24.1023 78.968 24.3523C78.7266 24.5994 78.4283 24.7926 78.0732 24.9318C77.718 25.0682 77.3189 25.1364 76.8757 25.1364ZM86.4169 25.1534C86.0021 25.1534 85.6257 25.0753 85.2876 24.919C84.9496 24.7599 84.6811 24.5312 84.4822 24.233C84.2834 23.9318 84.1839 23.5682 84.1839 23.142C84.1839 22.767 84.2578 22.4631 84.4055 22.2301C84.5533 21.9943 84.7507 21.8097 84.9979 21.6761C85.245 21.5426 85.5178 21.4432 85.8161 21.3778C86.1172 21.3097 86.4197 21.2557 86.7237 21.2159C87.1214 21.1648 87.4439 21.1264 87.6911 21.1009C87.9411 21.0724 88.1229 21.0256 88.2365 20.9602C88.353 20.8949 88.4112 20.7812 88.4112 20.6193V20.5852C88.4112 20.1648 88.2962 19.8381 88.0661 19.6051C87.8388 19.3722 87.4936 19.2557 87.0305 19.2557C86.5504 19.2557 86.174 19.3608 85.9013 19.571C85.6286 19.7812 85.4368 20.0057 85.326 20.2443L84.3714 19.9034C84.5419 19.5057 84.7692 19.196 85.0533 18.9744C85.3402 18.75 85.6527 18.5937 85.9908 18.5057C86.3317 18.4148 86.6669 18.3693 86.9964 18.3693C87.2067 18.3693 87.4482 18.3949 87.7209 18.446C87.9964 18.4943 88.2621 18.5952 88.5178 18.7486C88.7763 18.902 88.9908 19.1335 89.1612 19.4432C89.3317 19.7528 89.4169 20.1676 89.4169 20.6875V25H88.4112V24.1136H88.3601C88.2919 24.2557 88.1783 24.4077 88.0192 24.5696C87.8601 24.7315 87.6484 24.8693 87.3842 24.983C87.12 25.0966 86.7976 25.1534 86.4169 25.1534ZM86.5703 24.25C86.968 24.25 87.3033 24.1719 87.576 24.0156C87.8516 23.8594 88.0589 23.6577 88.1982 23.4105C88.3402 23.1634 88.4112 22.9034 88.4112 22.6307V21.7102C88.3686 21.7614 88.2749 21.8082 88.13 21.8509C87.9879 21.8906 87.8232 21.9261 87.6357 21.9574C87.451 21.9858 87.2706 22.0114 87.0945 22.0341C86.9212 22.054 86.7805 22.071 86.6726 22.0852C86.4112 22.1193 86.1669 22.1747 85.9396 22.2514C85.7152 22.3253 85.5334 22.4375 85.3942 22.5881C85.2578 22.7358 85.1896 22.9375 85.1896 23.1932C85.1896 23.5426 85.3189 23.8068 85.5774 23.9858C85.8388 24.1619 86.1697 24.25 86.5703 24.25ZM91.3888 25V16.2727H92.3945V19.4943H92.4798C92.5536 19.3807 92.6559 19.2358 92.7866 19.0597C92.9201 18.8807 93.1104 18.7216 93.3576 18.5824C93.6076 18.4403 93.9457 18.3693 94.3718 18.3693C94.9229 18.3693 95.4087 18.5071 95.8292 18.7827C96.2496 19.0582 96.5778 19.4489 96.8136 19.9545C97.0494 20.4602 97.1673 21.0568 97.1673 21.7443C97.1673 22.4375 97.0494 23.0384 96.8136 23.5469C96.5778 24.0526 96.2511 24.4446 95.8335 24.723C95.4158 24.9986 94.9343 25.1364 94.3888 25.1364C93.9684 25.1364 93.6317 25.0668 93.3789 24.9276C93.1261 24.7855 92.9315 24.625 92.7951 24.446C92.6587 24.2642 92.5536 24.1136 92.4798 23.9943H92.3604V25H91.3888ZM92.3775 21.7273C92.3775 22.2216 92.4499 22.6577 92.5948 23.0355C92.7397 23.4105 92.9513 23.7045 93.2298 23.9176C93.5082 24.1278 93.8491 24.233 94.2525 24.233C94.6729 24.233 95.0238 24.1222 95.305 23.9006C95.5891 23.6761 95.8022 23.375 95.9442 22.9972C96.0891 22.6165 96.1616 22.1932 96.1616 21.7273C96.1616 21.267 96.0906 20.8523 95.9485 20.483C95.8093 20.1108 95.5977 19.8168 95.3136 19.6009C95.0323 19.3821 94.6786 19.2727 94.2525 19.2727C93.8434 19.2727 93.4996 19.3764 93.2212 19.5838C92.9428 19.7884 92.7326 20.0753 92.5906 20.4446C92.4485 20.8111 92.3775 21.2386 92.3775 21.7273ZM101.365 25.1364C100.774 25.1364 100.255 24.9957 99.8093 24.7145C99.3661 24.4332 99.0195 24.0398 98.7695 23.5341C98.5224 23.0284 98.3988 22.4375 98.3988 21.7614C98.3988 21.0795 98.5224 20.4844 98.7695 19.9759C99.0195 19.4673 99.3661 19.0724 99.8093 18.7912C100.255 18.5099 100.774 18.3693 101.365 18.3693C101.956 18.3693 102.473 18.5099 102.916 18.7912C103.362 19.0724 103.708 19.4673 103.956 19.9759C104.206 20.4844 104.331 21.0795 104.331 21.7614C104.331 22.4375 104.206 23.0284 103.956 23.5341C103.708 24.0398 103.362 24.4332 102.916 24.7145C102.473 24.9957 101.956 25.1364 101.365 25.1364ZM101.365 24.233C101.814 24.233 102.183 24.1179 102.473 23.8878C102.762 23.6577 102.977 23.3551 103.116 22.9801C103.255 22.6051 103.325 22.1989 103.325 21.7614C103.325 21.3239 103.255 20.9162 103.116 20.5384C102.977 20.1605 102.762 19.8551 102.473 19.6222C102.183 19.3892 101.814 19.2727 101.365 19.2727C100.916 19.2727 100.547 19.3892 100.257 19.6222C99.967 19.8551 99.7525 20.1605 99.6133 20.5384C99.4741 20.9162 99.4045 21.3239 99.4045 21.7614C99.4045 22.1989 99.4741 22.6051 99.6133 22.9801C99.7525 23.3551 99.967 23.6577 100.257 23.8878C100.547 24.1179 100.916 24.233 101.365 24.233ZM109.991 22.3239V18.4545H110.996V25H109.991V23.892H109.923C109.769 24.2244 109.531 24.5071 109.207 24.7401C108.883 24.9702 108.474 25.0852 107.979 25.0852C107.57 25.0852 107.207 24.9957 106.888 24.8168C106.57 24.6349 106.32 24.3622 106.138 23.9986C105.957 23.6321 105.866 23.1705 105.866 22.6136V18.4545H106.871V22.5455C106.871 23.0227 107.005 23.4034 107.272 23.6875C107.542 23.9716 107.886 24.1136 108.303 24.1136C108.553 24.1136 108.808 24.0497 109.066 23.9219C109.327 23.794 109.546 23.598 109.722 23.3338C109.901 23.0696 109.991 22.733 109.991 22.3239ZM115.685 18.4545V19.3068H112.293V18.4545H115.685ZM113.282 16.8864H114.287V23.125C114.287 23.4091 114.328 23.6222 114.411 23.7642C114.496 23.9034 114.604 23.9972 114.735 24.0455C114.868 24.0909 115.009 24.1136 115.157 24.1136C115.267 24.1136 115.358 24.108 115.429 24.0966C115.5 24.0824 115.557 24.071 115.6 24.0625L115.804 24.9659C115.736 24.9915 115.641 25.017 115.519 25.0426C115.397 25.071 115.242 25.0852 115.054 25.0852C114.77 25.0852 114.492 25.0241 114.219 24.902C113.949 24.7798 113.725 24.5938 113.546 24.3438C113.37 24.0938 113.282 23.7784 113.282 23.3977V16.8864Z" fill="#C39172"/>
<path d="M24.2273 36.7614L22.0114 36.8977C21.9735 36.7083 21.892 36.5379 21.767 36.3864C21.642 36.2311 21.4773 36.108 21.2727 36.017C21.072 35.9223 20.8314 35.875 20.5511 35.875C20.1761 35.875 19.8598 35.9545 19.6023 36.1136C19.3447 36.2689 19.2159 36.4773 19.2159 36.7386C19.2159 36.947 19.2992 37.1231 19.4659 37.267C19.6326 37.411 19.9186 37.5265 20.3239 37.6136L21.9034 37.9318C22.7519 38.1061 23.3845 38.3864 23.8011 38.7727C24.2178 39.1591 24.4261 39.6667 24.4261 40.2955C24.4261 40.8674 24.2576 41.3693 23.9205 41.8011C23.5871 42.233 23.1288 42.5701 22.5455 42.8125C21.9659 43.0511 21.2973 43.1705 20.5398 43.1705C19.3845 43.1705 18.464 42.9299 17.7784 42.4489C17.0966 41.964 16.697 41.3049 16.5795 40.4716L18.9602 40.3466C19.0322 40.6989 19.2064 40.9678 19.483 41.1534C19.7595 41.3352 20.1136 41.4261 20.5455 41.4261C20.9697 41.4261 21.3106 41.3447 21.5682 41.1818C21.8295 41.0152 21.9621 40.8011 21.9659 40.5398C21.9621 40.3201 21.8693 40.1402 21.6875 40C21.5057 39.8561 21.2254 39.7462 20.8466 39.6705L19.3352 39.3693C18.483 39.1989 17.8485 38.9034 17.4318 38.483C17.0189 38.0625 16.8125 37.5265 16.8125 36.875C16.8125 36.3144 16.964 35.8314 17.267 35.4261C17.5739 35.0208 18.0038 34.7083 18.5568 34.4886C19.1136 34.2689 19.7652 34.1591 20.5114 34.1591C21.6136 34.1591 22.4811 34.392 23.1136 34.858C23.75 35.3239 24.1212 35.9583 24.2273 36.7614ZM28.3707 31.3636V43H25.9503V31.3636H28.3707ZM30.3097 43V34.2727H32.7301V43H30.3097ZM31.5256 33.1477C31.1657 33.1477 30.857 33.0284 30.5994 32.7898C30.3456 32.5473 30.2188 32.2576 30.2188 31.9205C30.2188 31.5871 30.3456 31.3011 30.5994 31.0625C30.857 30.8201 31.1657 30.6989 31.5256 30.6989C31.8854 30.6989 32.1922 30.8201 32.446 31.0625C32.7036 31.3011 32.8324 31.5871 32.8324 31.9205C32.8324 32.2576 32.7036 32.5473 32.446 32.7898C32.1922 33.0284 31.8854 33.1477 31.5256 33.1477ZM38.6122 43.1705C37.7183 43.1705 36.9493 42.9811 36.3054 42.6023C35.6652 42.2197 35.1728 41.6894 34.8281 41.0114C34.4872 40.3333 34.3168 39.553 34.3168 38.6705C34.3168 37.7765 34.4891 36.9924 34.8338 36.3182C35.1823 35.6402 35.6766 35.1117 36.3168 34.733C36.9569 34.3504 37.7183 34.1591 38.6009 34.1591C39.3622 34.1591 40.0289 34.2973 40.6009 34.5739C41.1728 34.8504 41.6255 35.2386 41.9588 35.7386C42.2921 36.2386 42.4759 36.8258 42.5099 37.5H40.2259C40.1615 37.0644 39.991 36.714 39.7145 36.4489C39.4418 36.1799 39.0838 36.0455 38.6406 36.0455C38.2656 36.0455 37.938 36.1477 37.6577 36.3523C37.3812 36.553 37.1652 36.8466 37.0099 37.233C36.8546 37.6193 36.777 38.0871 36.777 38.6364C36.777 39.1932 36.8527 39.6667 37.0043 40.0568C37.1596 40.447 37.3774 40.7443 37.6577 40.9489C37.938 41.1534 38.2656 41.2557 38.6406 41.2557C38.9171 41.2557 39.1652 41.1989 39.3849 41.0852C39.6084 40.9716 39.7921 40.8068 39.9361 40.5909C40.0838 40.3712 40.1804 40.108 40.2259 39.8011H42.5099C42.4721 40.4678 42.2902 41.0549 41.9645 41.5625C41.6425 42.0663 41.1974 42.4602 40.6293 42.7443C40.0611 43.0284 39.3887 43.1705 38.6122 43.1705ZM48.0369 43.1705C47.1392 43.1705 46.3665 42.9886 45.7188 42.625C45.0748 42.2576 44.5786 41.7386 44.2301 41.0682C43.8816 40.3939 43.7074 39.5966 43.7074 38.6761C43.7074 37.7784 43.8816 36.9905 44.2301 36.3125C44.5786 35.6345 45.0691 35.1061 45.7017 34.7273C46.3381 34.3485 47.0843 34.1591 47.9403 34.1591C48.5161 34.1591 49.0521 34.2519 49.5483 34.4375C50.0483 34.6193 50.4839 34.8939 50.8551 35.2614C51.2301 35.6288 51.5218 36.0909 51.7301 36.6477C51.9384 37.2008 52.0426 37.8485 52.0426 38.5909V39.2557H44.6733V37.7557H49.7642C49.7642 37.4072 49.6884 37.0985 49.5369 36.8295C49.3854 36.5606 49.1752 36.3504 48.9062 36.1989C48.6411 36.0436 48.3324 35.9659 47.9801 35.9659C47.6127 35.9659 47.2869 36.0511 47.0028 36.2216C46.7225 36.3883 46.5028 36.6136 46.3438 36.8977C46.1847 37.178 46.1032 37.4905 46.0994 37.8352V39.2614C46.0994 39.6932 46.179 40.0663 46.3381 40.3807C46.5009 40.6951 46.7301 40.9375 47.0256 41.108C47.321 41.2784 47.6714 41.3636 48.0767 41.3636C48.3456 41.3636 48.5919 41.3258 48.8153 41.25C49.0388 41.1742 49.2301 41.0606 49.3892 40.9091C49.5483 40.7576 49.6695 40.572 49.7528 40.3523L51.9915 40.5C51.8778 41.0379 51.6449 41.5076 51.2926 41.9091C50.9441 42.3068 50.4934 42.6174 49.9403 42.8409C49.3911 43.0606 48.7566 43.1705 48.0369 43.1705ZM53.6222 43V34.2727H55.9688V35.7955H56.0597C56.2188 35.2538 56.4858 34.8447 56.8608 34.5682C57.2358 34.2879 57.6676 34.1477 58.1562 34.1477C58.2775 34.1477 58.4081 34.1553 58.5483 34.1705C58.6884 34.1856 58.8116 34.2064 58.9176 34.233V36.3807C58.804 36.3466 58.6468 36.3163 58.446 36.2898C58.2453 36.2633 58.0616 36.25 57.8949 36.25C57.5388 36.25 57.2206 36.3277 56.9403 36.483C56.6638 36.6345 56.4441 36.8466 56.2812 37.1193C56.1222 37.392 56.0426 37.7064 56.0426 38.0625V43H53.6222Z" fill="#C39172"/>
<g filter="url(#filter0_d_7_10768)">
<path fill-rule="evenodd" clip-rule="evenodd" d="M158.875 20.5C158.875 20.1022 159.026 19.7206 159.296 19.4393C159.566 19.158 159.931 19 160.312 19H167.5C167.881 19 168.247 18.842 168.516 18.5607C168.786 18.2794 168.937 17.8978 168.937 17.5C168.937 17.1022 168.786 16.7206 168.516 16.4393C168.247 16.158 167.881 16 167.5 16H160.312C159.169 16 158.072 16.4741 157.263 17.318C156.454 18.1619 156 19.3065 156 20.5V39.5C156 40.6935 156.454 41.8381 157.263 42.682C158.072 43.5259 159.169 44 160.312 44H176.604C177.927 44 179 42.88 179 41.5V28C179 27.6022 178.849 27.2206 178.579 26.9393C178.309 26.658 177.944 26.5 177.562 26.5C177.181 26.5 176.816 26.658 176.546 26.9393C176.276 27.2206 176.125 27.6022 176.125 28V34H160.312C159.808 34 159.325 34.09 158.875 34.256V20.5ZM158.875 38.5V39.5C158.875 40.328 159.519 41 160.312 41H176.125V37H160.312C159.931 37 159.566 37.158 159.296 37.4393C159.026 37.7206 158.875 38.1022 158.875 38.5Z" fill="#97512D"/>
<path d="M176.125 21.12V22.5C176.125 22.8978 176.276 23.2794 176.546 23.5607C176.816 23.842 177.181 24 177.563 24C177.944 24 178.309 23.842 178.579 23.5607C178.849 23.2794 179 22.8978 179 22.5V17.5C179 17.1022 178.849 16.7206 178.579 16.4393C178.309 16.158 177.944 16 177.563 16H172.771C172.39 16 172.024 16.158 171.754 16.4393C171.485 16.7206 171.333 17.1022 171.333 17.5C171.333 17.8978 171.485 18.2794 171.754 18.5607C172.024 18.842 172.39 19 172.771 19H174.093L170.318 22.94C170.064 23.2243 169.925 23.6004 169.932 23.989C169.938 24.3776 170.089 24.7484 170.353 25.0232C170.616 25.2981 170.971 25.4555 171.344 25.4623C171.716 25.4692 172.077 25.325 172.349 25.06L176.125 21.12Z" fill="#97512D"/>
</g>
<defs>
<filter id="filter0_d_7_10768" x="144.5" y="8.5" width="46" height="51" filterUnits="userSpaceOnUse" color-interpolation-filters="sRGB">
<feFlood flood-opacity="0" result="BackgroundImageFix"/>
<feColorMatrix in="SourceAlpha" type="matrix" values="0 0 0 0 0 0 0 0 0 0 0 0 0 0 0 0 0 0 127 0" result="hardAlpha"/>
<feOffset dy="4"/>
<feGaussianBlur stdDeviation="3.25"/>
<feColorMatrix type="matrix" values="0 0 0 0 0 0 0 0 0 0 0 0 0 0 0 0 0 0 0.2 0"/>
<feBlend mode="normal" in2="BackgroundImageFix" result="effect1_dropShadow_7_10768"/>
<feBlend mode="normal" in="SourceGraphic" in2="effect1_dropShadow_7_10768" result="shape"/>
</filter>
<linearGradient id="paint0_linear_7_10768" x1="0" y1="0" x2="33.0275" y2="110.092" gradientUnits="userSpaceOnUse">
<stop stop-color="#473A30"/>
<stop offset="1" stop-color="#382E26"/>
</linearGradient>
<linearGradient id="paint1_linear_7_10768" x1="121.768" y1="33" x2="197" y2="33" gradientUnits="userSpaceOnUse">
<stop stop-color="#514336" stop-opacity="0"/>
<stop offset="0.151613" stop-color="#534437"/>
</linearGradient>
<clipPath id="clip0_7_10768">
<rect x="3" y="3" width="194" height="54" rx="17" fill="white"/>
</clipPath>
</defs>
</svg>
